<svg t="1683096002084" class="icon" viewBox="0 0 1024 1024" version="1.1" xmlns="http://www.w3.org/2000/svg" p-id="3547" width="200" height="200"><path d="M513.83 950.49c-242.42 0-439.64-197.09-439.64-439.38 0-134.37 60.22-259.67 165.18-343.65 16.14-13.03 39.72-10.39 52.68 5.82 12.94 16.17 10.32 39.74-5.84 52.66C199.1 295.67 149.13 399.6 149.13 511.1c0 200.94 163.59 364.44 364.69 364.44 200.94 0 364.42-163.5 364.42-364.44 0-185.13-138.32-340.8-321.77-362.13-20.55-2.38-35.28-21-32.88-41.53 2.38-20.57 21.02-35.46 41.55-32.9 221.21 25.73 388.04 213.42 388.04 436.56 0.01 242.29-197.08 439.39-439.35 439.39z" p-id="3548"></path><path d="M560.82 341.97c-20.69 0-37.47-16.76-37.47-37.47V111.75c0-20.71 16.78-37.47 37.47-37.47 20.69 0 37.47 16.76 37.47 37.47v192.74c0 20.72-16.78 37.48-37.47 37.48zM570.71 542.06c-9.59 0-19.18-3.66-26.49-10.98L236.3 223.18c-14.64-14.64-14.64-38.35 0-52.99s38.35-14.64 52.99 0l307.92 307.9c14.64 14.64 14.64 38.35 0 52.99-7.32 7.32-16.91 10.98-26.5 10.98z" p-id="3549"></path><path d="M262.07 503.44m-43.07 0a43.07 43.07 0 1 0 86.14 0 43.07 43.07 0 1 0-86.14 0Z" p-id="3550"></path><path d="M787.03 503.44m-43.07 0a43.07 43.07 0 1 0 86.14 0 43.07 43.07 0 1 0-86.14 0Z" p-id="3551"></path><path d="M524.14 764.7m-43.07 0a43.07 43.07 0 1 0 86.14 0 43.07 43.07 0 1 0-86.14 0Z" p-id="3552"></path></svg>