<svg t="1677764463730" class="icon" viewBox="0 0 1137 1024" version="1.1" xmlns="http://www.w3.org/2000/svg" p-id="998" width="128" height="128"><path d="M25.582235 1022.934074c-10.375017-3.979459-18.262873-11.369882-23.308259-21.7449l-2.273976-4.690076v-23.37932c0.071062-23.166135 0.071062-23.450382 1.847606-28.353643 0.923803-2.700347 1.989729-5.613879 2.202914-6.395559 1.065926-3.62415 10.232894-15.278279 11.938377-15.278279 0.213185 0 1.634421-0.923803 3.055655-2.060791s4.690076-2.771409 7.2483-3.695212c4.547953-1.634421 5.045385-1.705482 38.160167-1.918667l33.612213-0.213186 0.142124-430.421096 0.213185-430.421097 1.563359-6.821929c0.923803-3.766273 2.629285-9.024844 3.908397-11.725191 2.558223-5.613879 7.603609-13.785982 8.45635-13.785982 0.355309 0 0.994865-0.781679 1.492297-1.705482 1.279112-2.4161 10.161832-9.6644 15.562526-12.648994 4.903262-2.771409 8.172103-4.05052 15.562526-6.324497 4.547953-1.350173 9.309091-1.350173 278.562109-1.350173h273.943096l7.816793 2.700347c10.232894 3.482026 17.125885 7.67467 23.876753 14.283414 9.380153 9.309091 15.420402 20.678973 17.410132 32.759473 0.852741 5.116447 0.994865 73.264677 0.994864 446.69424 0 387.997224 0.142124 440.725052 1.065927 442.004164 0.923803 1.136988 1.136988 1.20805 1.776544 0.284247 0.426371-0.710618 0.710618-103.821235 0.710617-307.98168 0-291.921721 0.071062-306.844691 1.279112-306.347258 0.639556 0.284247 2.842471 0.710618 4.761138 1.065926 1.989729 0.284247 6.46662 1.350173 9.948647 2.345038 14.070229 3.908397 22.810826 6.182373 23.663567 6.182374 0.497432 0 4.334768 0.923803 8.527411 2.060791s11.440944 3.126718 16.131021 4.334767 12.720056 3.268841 17.76544 4.619015c5.116447 1.350173 13.075364 3.410965 17.765441 4.619014s12.0805 3.126718 16.344205 4.192644c4.334768 1.136988 11.796253 3.055656 16.699515 4.334768 4.903262 1.20805 12.435808 3.126718 16.699514 4.263706 4.334768 1.136988 12.293685 3.197779 17.76544 4.619014s12.364747 3.268841 15.278279 4.050521c2.913532 0.852741 7.887856 2.060791 11.014574 2.771408s7.745732 1.918668 10.303955 2.700347 5.25857 1.492297 6.04025 1.492297c0.852741 0 4.547953 0.923803 8.172103 2.131853 3.695212 1.136988 7.390423 2.131853 8.172102 2.131853 3.553088 0 18.760305 5.25857 25.297988 8.598473 3.837335 2.060791 7.035115 3.979459 7.035114 4.334768 0 0.284247 0.426371 0.568494 0.994865 0.568494 1.847606 0 13.999167 10.87245 19.684108 17.552255 3.055656 3.695212 5.613879 6.964053 5.61388 7.319362s0.923803 1.989729 2.060791 3.695212c1.065926 1.705482 2.202915 3.695212 2.4161 4.476891 0.284247 0.781679 1.279112 3.695212 2.202914 6.395558l1.776544 4.974324 0.071062 237.488411v237.417349l30.769743 0.355308c26.008605 0.213185 31.338237 0.497432 34.962388 1.492297 2.345038 0.639556 5.329632 1.492297 6.537682 1.776544 3.268841 0.852741 9.309091 4.761138 12.720055 8.314227 1.634421 1.634421 3.979459 5.045385 5.187509 7.532547l2.273976 4.619014-0.355308 9.166968c-0.213185 5.045385-0.639556 17.33907-0.994865 27.287716-0.710618 20.323664-1.421235 23.734629-6.182373 30.62762-5.187509 7.603609-9.593338 11.440944-17.552256 15.207217l-5.116447 2.487162-539.42984-0.071062c-450.389452 0-539.785149-0.213185-541.84594-0.994864z m910.301179-246.939626V694.273421h-71.061762v163.442054h71.061762v-81.721027zM390.839695 698.892436v-49.387925H236.63567v98.77585h154.204025v-49.387925z m191.866759 0v-49.387925H427.791811v98.77585h154.914643v-49.387925z m353.17696-114.054129V503.11728h-71.061762v163.442054h71.061762V584.838307zM390.839695 480.022207v-49.387925H236.63567v98.77585h154.204025v-49.387925z m191.866759 0v-49.387925H427.791811v98.77585h154.914643v-49.387925zM390.839695 270.034698v-49.743234H236.63567v99.486468h154.204025v-49.743234z m191.866759 0v-49.743234H427.791811v99.486468h154.914643v-49.743234z" p-id="999"></path></svg>