<svg t="1677573737381" class="icon" viewBox="0 0 1024 1024" version="1.1" xmlns="http://www.w3.org/2000/svg" p-id="845" width="128" height="128"><path d="M512 0c282.752 0 512 229.248 512 512s-229.248 512-512 512S0 794.752 0 512 229.248 0 512 0z m-85.333333 725.333333h170.666666l-42.666666 85.333334 30.464 121.770666a425.130667 425.130667 0 0 0 208.128-99.626666l1.450666 7.04a192.085333 192.085333 0 0 0-179.584-156.970667L605.866667 682.666667H418.133333a192.085333 192.085333 0 0 0-187.434666 150.186666 425.685333 425.685333 0 0 0 208.213333 99.584L469.333333 810.666667l-42.666666-85.333334z m85.333333-640C276.352 85.333333 85.333333 276.352 85.333333 512c0 92.8 29.610667 178.645333 79.914667 248.661333a277.504 277.504 0 0 1 242.432-163.114666L418.133333 597.333333h187.733334c111.445333 0 209.066667 66.133333 252.885333 163.285334A424.405333 424.405333 0 0 0 938.666667 512c0-235.648-191.018667-426.666667-426.666667-426.666667z" p-id="846"></path><path d="M512 128a213.333333 213.333333 0 1 0 0 426.666667 213.333333 213.333333 0 0 0 0-426.666667z m0 85.333333a128 128 0 1 1 0 256 128 128 0 0 1 0-256z" p-id="847"></path></svg>